<?xml version="1.0" standalone="no"?>
<!DOCTYPE svg PUBLIC "-//W3C//DTD SVG 20010904//EN"
 "http://www.w3.org/TR/2001/REC-SVG-20010904/DTD/svg10.dtd">
<svg version="1.0" xmlns="http://www.w3.org/2000/svg"
 width="500.000000pt" height="500.000000pt" viewBox="0 0 500.000000 500.000000"
 preserveAspectRatio="xMidYMid meet">
<metadata>
Created by potrace 1.16, written by Peter Selinger 2001-2019
</metadata>
<g transform="translate(0.000000,500.000000) scale(0.100000,-0.100000)"
fill="#000000" stroke="none">
<path d="M2440 4252 c-30 -16 -77 -41 -104 -56 -61 -32 -107 -33 -220 -5 -50
13 -95 19 -111 15 -15 -4 -63 -44 -108 -90 -91 -91 -101 -96 -224 -96 -123 0
-158 -26 -222 -163 -38 -80 -71 -105 -178 -136 -117 -35 -139 -62 -163 -201
-16 -90 -41 -130 -114 -178 -130 -87 -130 -89 -121 -242 8 -134 6 -141 -71
-230 -84 -98 -88 -126 -31 -248 38 -83 41 -157 10 -217 -11 -22 -28 -62 -37
-89 -22 -64 -11 -96 61 -184 30 -37 60 -78 65 -92 6 -15 7 -74 3 -145 l-7
-121 28 -33 c16 -19 52 -49 80 -67 104 -67 112 -81 144 -247 17 -85 43 -110
155 -147 52 -17 105 -40 118 -50 14 -11 44 -58 67 -104 24 -47 53 -95 66 -107
27 -26 84 -38 177 -39 90 0 123 -16 188 -89 30 -34 73 -71 96 -82 l42 -20 107
26 c62 15 118 24 133 20 14 -3 65 -28 112 -56 115 -65 137 -65 254 3 80 46 96
52 145 51 30 -1 69 -6 85 -13 17 -6 52 -16 78 -21 66 -12 97 3 176 86 36 36
76 72 90 79 14 8 71 16 126 18 55 3 112 11 127 18 31 15 68 65 96 131 34 78
73 114 154 139 153 48 169 66 193 202 8 44 23 94 33 112 10 17 54 56 98 86 49
35 86 69 99 92 18 34 18 43 7 130 -14 118 -6 149 56 226 98 117 101 133 47
262 -44 107 -44 142 0 241 54 124 49 152 -49 269 -57 68 -68 105 -56 190 21
146 9 173 -115 260 -90 63 -106 90 -126 220 -15 99 -42 126 -161 163 -47 15
-98 37 -112 48 -14 11 -46 60 -72 110 -62 121 -76 129 -217 138 -129 8 -133
10 -229 110 -74 77 -104 90 -173 72 -22 -5 -58 -15 -80 -20 -91 -24 -128 -15
-245 54 -81 49 -106 51 -170 17z m400 -295 c139 -33 215 -60 334 -118 428
-211 721 -590 816 -1060 29 -140 29 -449 0 -589 -121 -594 -610 -1071 -1204
-1176 -129 -22 -453 -19 -576 6 -512 104 -948 493 -1116 995 -100 299 -100
665 1 954 188 540 632 913 1200 1007 129 22 414 11 545 -19z"/>
<path d="M2415 3859 c-179 -11 -338 -56 -515 -144 -143 -72 -237 -140 -356
-259 -192 -193 -315 -421 -377 -696 -27 -125 -29 -371 -3 -505 57 -296 178
-528 386 -735 58 -58 139 -129 181 -157 447 -305 1002 -331 1463 -68 359 204
614 566 681 967 18 112 21 312 5 419 -79 525 -432 947 -933 1114 -170 57 -331
76 -532 64z m340 -85 c110 -19 158 -32 260 -75 410 -169 707 -536 791 -976 22
-116 23 -337 1 -459 -97 -538 -521 -964 -1057 -1060 -127 -23 -335 -22 -465 1
-267 47 -504 174 -698 374 -153 158 -244 305 -306 494 -53 161 -64 236 -64
417 0 177 11 254 60 405 114 357 401 666 749 806 126 51 214 71 404 93 58 7
229 -4 325 -20z"/>
<path d="M2005 3052 c-22 -11 -48 -29 -58 -40 -43 -48 -46 -78 -46 -487 0
-214 4 -408 9 -429 11 -49 37 -85 81 -111 30 -18 52 -20 204 -20 160 0 172 1
207 23 23 14 45 41 60 70 21 43 23 63 26 254 3 114 1 219 -2 233 l-7 26 -132
-3 -132 -3 -3 -87 -3 -88 46 0 45 0 0 -109 c0 -132 -7 -141 -105 -141 -39 0
-69 6 -83 16 l-22 15 0 344 0 344 22 15 c14 10 44 16 83 16 91 0 105 -14 105
-104 0 -86 0 -86 100 -86 90 0 95 8 86 142 -7 117 -27 165 -83 199 -35 22 -50
24 -198 27 -139 2 -165 0 -200 -16z"/>
<path d="M2600 2980 l0 -90 90 0 90 0 2 -462 3 -463 90 0 90 0 3 463 2 462 90
0 90 0 0 90 0 90 -275 0 -275 0 0 -90z"/>
</g>
</svg>
